<?xml version="1.0" encoding="UTF-8"?>
<svg id="Calque_2" data-name="Calque 2" xmlns="http://www.w3.org/2000/svg" viewBox="0 0 156.68 154.39">
  <defs>
    <style>
      .cls-1 {
        fill: #24252c;
      }
    </style>
  </defs>
  <g id="Crayon">
    <g>
      <g>
        <path class="cls-1" d="m32.08,37.96l85.43,83.9-24.06,24.5L8.02,62.47l24.06-24.5m-.07-8.02l-3.97,4.04L3.97,58.49l-3.97,4.04,4.04,3.97,85.43,83.9,4.04,3.97,3.97-4.04,24.06-24.5,3.97-4.04-4.04-3.97L36.05,33.92l-4.04-3.97h0Z"/>
        <path class="cls-1" d="m52.63,105.73c-.24.25-.54.46-.88.61-1.43.63-3.11-.02-3.74-1.45-11.47-26.02-14.99-29.31-31.37-29.28-1.57,0-2.84-1.27-2.84-2.83,0-1.56,1.27-2.84,2.83-2.84,19.98-.03,25.07,6.58,36.57,32.67.48,1.09.22,2.33-.57,3.13Z"/>
        <path class="cls-1" d="m62.57,101.82c-.3.3-.66.54-1.09.69-1.48.52-3.09-.27-3.61-1.74-13.32-38.25-25.05-37.94-42.78-32.88-1.51.43-3.07-.44-3.5-1.95s.44-3.07,1.95-3.5c22.32-6.37,36.13-2.47,49.69,36.47.37,1.05.08,2.18-.66,2.92Z"/>
        <path class="cls-1" d="m99.56,142.42c-.56.57-1.37.91-2.24.84-12.81-.97-22.82-15.28-25.54-24.66-.44-1.5.43-3.07,1.93-3.51,1.5-.44,3.08.43,3.51,1.93,2.31,7.96,10.95,19.86,20.52,20.58,1.56.12,2.73,1.48,2.61,3.04-.05.69-.35,1.31-.8,1.77Z"/>
        <path class="cls-1" d="m99.48,127.8c-.74.75-1.86,1.06-2.93.7-8.3-2.79-15.67-13.89-22.51-33.93-.51-1.48.28-3.09,1.77-3.6,1.48-.51,3.09.29,3.6,1.77,7.66,22.43,14.53,28.9,18.95,30.39,1.48.5,2.28,2.11,1.78,3.59-.14.42-.37.79-.66,1.08Z"/>
        <path class="cls-1" d="m43.99,58.68c-.67.69-1.68,1.01-2.68.77-17.3-4.13-21.9-12.64-22.09-13-.72-1.39-.18-3.1,1.21-3.82,1.39-.72,3.1-.18,3.82,1.21.02.03,3.87,6.64,18.37,10.1,1.52.36,2.46,1.89,2.1,3.41-.12.52-.38.97-.73,1.33Z"/>
        <path class="cls-1" d="m118.3,125.2c-1.03,1.05-2.7,1.14-3.84.18-.6-.5-1.05-.89-1.4-1.19-.13-.11-.24-.21-.34-.3-.95-.03-2.34-.25-5.02-1.09-9.38-2.94-17.3-14.81-21.23-24.09-.61-1.44.06-3.1,1.5-3.72,1.44-.61,3.11.06,3.72,1.5,4.41,10.42,11.69,19.01,17.7,20.89,1.86.58,3.12.86,3.73.83,1.59-.09,2.31.53,3.63,1.66.34.29.78.67,1.36,1.15,1.2,1.01,1.36,2.79.35,3.99-.05.06-.1.11-.15.17Z"/>
        <path class="cls-1" d="m65.34,78.2c-.19.19-.41.36-.66.5-1.37.75-3.1.25-3.85-1.12l-.37-.69c-1.54-2.87-5.15-9.59-11.14-13.08-1.35-.79-1.81-2.52-1.02-3.88.79-1.35,2.52-1.81,3.88-1.02,7.38,4.3,11.52,12.01,13.29,15.3l.34.64c.62,1.12.4,2.48-.46,3.35Z"/>
      </g>
      <g id="layer1">
        <path class="cls-1" d="m78.34,6.87l-2.25,2.25c-1.06-.56-2.36-.37-3.21.48l-8.19,8.19c-.84.85-1.04,2.14-.48,3.2h0s-3.05,3.06-3.05,3.06l-.8-.8c-1.07-1.07-2.79-1.07-3.86,0l-8.19,8.19c-1.07,1.07-1.07,2.79,0,3.86l13.65,13.65c1.07,1.07,2.79,1.07,3.86,0l8.19-8.19c1.07-1.07,1.07-2.79,0-3.86l-.8-.8,2.96-2.96,20.79,20.79c-.56,1.06-.37,2.36.48,3.21l43.67,43.67c1.07,1.07,2.79,1.07,3.86,0l10.92-10.92c1.07-1.07,1.07-2.79,0-3.86l-43.67-43.67c-.5-.5-1.18-.79-1.89-.8-.46,0-.91.11-1.31.32h-.01l-15.9-15.9c-.4-.4-1.25-2.62-1.25-4.89s.85-4.49,1.25-4.89c7.12-7.12,16.51-4.74,16.51-4.74,1.02.25,2.09-.1,2.76-.9.97-1.16.81-2.88-.35-3.84,0,0-8.28-7.13-18.88-6.67-4.82.21-10.11,2.14-14.82,6.84Zm20.69-.01c-3.26.9-6.64,2.34-9.78,5.47-2.33,2.33-2.85,5.57-2.85,8.75s.52,6.42,2.85,8.75l15.81,15.81-4.33,4.33-22.63-22.63c-1.07-1.07-2.79-1.07-3.86,0l-6.82,6.82c-1.07,1.07-1.07,2.79,0,3.86l.8.8-4.33,4.33-9.79-9.79,4.33-4.33.8.8c1.07,1.07,2.79,1.07,3.86,0l6.82-6.82c.84-.85,1.04-2.14.48-3.2,0,0,0,0,0-.01l4.5-4.5c1.06.56,2.36.37,3.21-.48l4.09-4.09c3.82-3.82,7.58-5.09,11.19-5.25,2.12-.09,3.75.82,5.64,1.38Zm51.07,81.09l-7.06,7.06-39.81-39.81,7.06-7.06,39.81,39.81Z"/>
      </g>
    </g>
  </g>
</svg>